<?xml version="1.0" standalone="no"?>
<!DOCTYPE svg PUBLIC "-//W3C//DTD SVG 1.1//EN" "http://www.w3.org/Graphics/SVG/1.1/DTD/svg11.dtd" >
<svg xmlns="http://www.w3.org/2000/svg" xmlns:xlink="http://www.w3.org/1999/xlink" version="1.1" viewBox="-10 0 6576 1024">
   <path fill="#212529"
d="M2940 555c0 36.667 -7 64.665 -21 83.998c-12.667 3.33301 -29 1.33301 -49 -6c-16 -6 -29.667 -15.667 -41 -29c-12 40.667 -37.667 61 -77 61c-20 0 -34.333 -9.33301 -43 -28c-4 -8 -6.66699 -17.667 -8 -29c-2.66699 5.33301 -12 15 -28 29
c-8 5.33301 -18.667 9 -32 11c-16 2 -29.333 1.33301 -40 -2c-4.66699 0.666992 -11.667 -2.66602 -21 -9.99902c2 -18 9.33301 -35.667 22 -53c10.667 -14.667 41 -34.667 91 -60l-5 -22l23 -39c3.33301 17.333 7.33301 42 12 74c1.33301 23.333 3.66602 39.333 6.99902 48
c6.66699 18 18 27 34 27c17.333 0 32.333 -7.66699 45 -23c5.33301 -6.66699 6.33301 -21.667 3 -45c-2.66699 -19.333 -7.66699 -40 -15 -62l16 -58c4 19.333 11 45.333 21 78l10 39c4.66699 13.333 12.334 24 23.001 32c8.66699 6.66699 24.334 9.33398 47.001 8.00098
c-6.66699 -12.667 -16.334 -32.667 -29.001 -60l-24 -57l17 -56c10.667 30 22.667 58.333 36 85c17.333 34.667 26 55.667 26 63zM2154 164.998c-12 24.667 -30.3311 40.666 -54.998 47.999c-8.66699 2.66699 -21 3.66699 -37 3c0 -2 7.33301 -7 22 -15
c14.667 -8.66699 22 -14.667 22 -18c-0.666992 -2 -6.66699 -3.66699 -18 -5s-21.333 -1.33301 -30 0c-2 0 -5 1 -9 3c-4.66699 2.66699 -9 4 -13 4c3.33301 -11.333 7.66602 -19.666 12.999 -24.999c9.33301 -10.667 23 -16 41 -16
c29.333 -0.666992 50.666 6.33301 63.999 21zM1870 219.997c0.666992 0.666992 -3.99805 4.66797 -13.998 12.001c-12 8.66699 -26 13 -42 13h-9c-7.33301 -0.666992 -13.333 -2.66699 -18 -6c-5.33301 -4 -8.33301 -6 -9 -6c-8.66699 -0.666992 -17.334 2.33301 -26.001 9
l-15 11c0.666992 -6.66699 4.33398 -15.334 11.001 -26.001c8.66699 -12.667 17.667 -19.667 27 -21c4 -0.666992 8.66699 0 14 2c6 2.66699 11.333 3 16 1c15.333 -28.667 31.666 -43 48.999 -43c5.33301 0 10.666 1.66699 15.999 5c5.33301 4 8 9.66699 8 17
c0 8 -2.66699 18.667 -8 32zM2009 428.998c0 21.333 -4.33301 36 -13 44c-2.66699 -11.333 -8.66699 -29.333 -18 -54c-4.66699 -10.667 -12.667 -25 -24 -43l14 -32c8.66699 4 17.667 16.333 27 37c9.33301 21.333 14 37.333 14 48zM1900 436.998l-25 38l-38 -27l23 -38z
M1826 548.998c0 28 -9 51.333 -27 70c0 -20.667 -4 -52.667 -12 -96l-32 -162l22 -76l45 236c2.66699 14.667 4 24 4 28zM1599 371.998c0 8.66699 -2.66992 17.333 -8.00293 26c-6 10.667 -13.667 16 -23 16s-16.666 -3 -21.999 -9l-8 13c-4 5.33301 -10.667 8 -20 8
c-12 0.666992 -21.667 -6.33301 -29 -21c-2 -5.33301 -2.33301 -13.666 -1 -24.999s3.33301 -17 6 -17c3.33301 0 5.33301 2.66699 6 8l1 9c2.66699 9.33301 10 14 22 14c9.33301 0 13.333 -9.66699 12 -29c-0.666992 -4.66699 0 -7.66699 2 -9
c2 -3.33301 3.33301 -5.66602 4 -6.99902c0.666992 0 2 4 4 12c2.66699 8.66699 5 14.334 7 17.001c2.66699 4 6.66699 6.66699 12 8c6 1.33301 10.333 0.666016 13 -2.00098s1 -11.667 -5 -27c0.666992 -0.666992 2.33398 -4.33398 5.00098 -11.001
c2.66699 -7.33301 4.66699 -11 6 -11c3.33301 5.33301 8 11.666 14 18.999c0.666992 1.33301 1.33398 7.33301 2.00098 18zM1722 515.997c-1.33301 17.333 -3.00195 30.667 -5.00195 40c-3.33301 15.333 -8.66602 27.333 -15.999 36
c-11.333 12.667 -28.666 19.667 -51.999 21c-8 31.333 -22 57.333 -42 78c-18 18.667 -37.333 31 -58 37c-11.333 2.66699 -25 3.66699 -41 3c-16.667 -1.33301 -34.334 -6.33301 -53.001 -15c-16.667 -8.66699 -27.334 -17 -32.001 -25c30 5.33301 51 7.66602 63 6.99902
c24 -1.33301 46 -7 66 -17c24.667 -13.333 47.334 -35.333 68.001 -66c-14.667 -9.33301 -22 -21.666 -22 -36.999l1 -8c2.66699 -18 6.66699 -27 12 -27c0.666992 0 1.33398 0.666992 2.00098 2c3.33301 12.667 14.333 19 33 19c20.667 0 35.334 -4.66699 44.001 -14
c2.66699 -2.66699 2.66699 -12.667 0 -30l-31 -186c-8 -2.66699 -11.667 -14.334 -11 -35.001c1.33301 -28.667 11.666 -44 30.999 -46c-0.666992 8.66699 2 22.334 8 41.001c2.66699 5.33301 7.66699 10 15 14l16 10c0 0.666992 -3.33301 11.667 -10 33l-10 2z
M1537 205.998l-655 267c-1.33301 0 -2 -0.333008 -2 -1c0 -3.33301 5.33301 -12.666 16 -27.999c10.667 -16 18.334 -25.667 23.001 -29c219.333 -92.667 386.666 -160.334 501.999 -203.001c78.667 -28.667 132 -50 160 -64zM2349 469.998l-20.999 39.9951
c-8.66699 -0.666992 -23.667 -2 -45 -4c-18.667 -2.66699 -29.667 -4 -33 -4c-60.667 0 -107.334 5.33301 -140.001 16c12 10.667 18 26.334 18 47.001c0 10 -2 18.667 -6 26c-10 17.333 -20.333 26 -31 26c-8 0 -19.333 -3 -34 -9
c-14.667 -6.66699 -25.334 -12.667 -32.001 -18c-3.33301 10 -8 18 -14 24c-6.66699 6.66699 -18 9.66699 -34 9c-1.33301 11.333 -4.33301 22.666 -9 33.999c-10 26.667 -36.333 53.334 -79 80.001c-44 27.333 -109 51.333 -195 72c-64.667 15.333 -136 23.333 -214 24
c-125.333 0.666992 -234.333 -22 -327 -68c-41.333 -20 -68.666 -34.333 -81.999 -43c-24 -16 -46.333 -37 -67 -63c-46.667 -2 -81 -7.66699 -103 -17c-2 6.66699 -9 16 -21 28c-2.66699 0.666992 -5.66699 1 -9 1c-14 0 -36 -5 -66 -15c-5.33301 10 -15 24.333 -29 43
c-16 14 -35.333 23 -58 27c-17.333 2.66699 -44.666 2.66699 -81.999 0c14.667 -5.33301 38.667 -16.666 72 -33.999c40.667 -20 62.667 -34.333 66 -43c-4.66699 -7.33301 -7 -16.333 -7 -27c-0.666992 -14.667 4 -32.667 14 -54c9.33301 -19.333 24.333 -31.333 45 -36
c23.333 27.333 48.333 47 75 59c31.333 14.667 70 22.334 116 23.001c72.667 0.666992 126 -4.66602 160 -15.999c21.333 -6.66699 49.666 -20.667 84.999 -42c2 5.33301 1.33301 13 -2 23c4 3.33301 15.667 5 35 5c16.667 0.666992 34.334 -3 53.001 -11
c16 -6.66699 31.667 -13.667 47 -21c-18 -10 -33.333 -17.333 -46 -22c-22 -8.66699 -43.667 -13.334 -65 -14.001h-15c-31.333 0 -43.333 0.666992 -36 2c20 -44 44.333 -66 73 -66c10.667 0 27.667 6 51 18c34.667 18 58.667 29.333 72 34c37.333 14 85 21 143 21l-27 46
c-22.667 0 -54.334 0.333008 -95.001 1c-4.66699 0 -35.334 11.333 -92.001 34l-42 18c-11.333 4 -23.333 6 -36 6c-2.66699 0 -10 -1.66699 -22 -5c-4.66699 -0.666992 -11.667 -3 -21 -7c-17.333 10.667 -48 20.334 -92 29.001c-39.333 8 -74 12 -104 12
c37.333 38.667 103.333 70.667 198 96c82 22 156.333 33.333 223 34c83.333 0.666992 177 -13.666 281 -42.999c112.667 -30.667 178.667 -64.334 198 -101.001c2.66699 -5.33301 3.66699 -11.666 3 -18.999c-2 -13.333 -9.66699 -25.333 -23 -36l17 -53
c8.66699 7.33301 18 18.333 28 33c6.66699 5.33301 19.334 5.33301 38.001 0c11.333 -2.66699 20.666 -12 27.999 -28c8 -18 15.667 -29.667 23 -35c10 -6.66699 24.667 -13.667 44 -21c14.667 -6 36 -11.667 64 -17c-26 -9.33301 -52.667 -14 -80 -14
c-18 0 -31.333 2.33301 -40 7c-0.666992 -1.33301 -1 -3 -1 -5c0 -6 2 -12.667 6 -20s6 -12 6 -14c18.667 -18 40.334 -27 65.001 -27c8 0 20 3.33301 36 10l63 27c62 24 105.667 36.333 131 37zM1361 679.993l-35.999 38l-33 -23l-29 30l-41 -34l31 -31
c7.33301 5.33301 17.666 12.333 30.999 21l31 -31zM946.001 691.993c-0.666992 7.33301 -6.66797 17.333 -18.001 30c-57.333 38 -106.666 59.667 -147.999 65l28 -32c20.667 -7.33301 66.667 -28.333 138 -63zM2695 556.993c-30.667 10 -51.333 24.333 -62 43
c33.333 2.66699 55 -3 65 -17c-0.666992 -8 -1.66699 -16.667 -3 -26zM2099 565.993c-6.66699 -18 -14.667 -26.667 -24 -26c-11.333 0.666992 -17 4 -17 10c2 4 9 7.66699 21 11c10 3.33301 16.667 5 20 5zM855.001 610.993c-11.333 -5.33301 -25.333 -17.333 -42 -36
c-3.33301 4.66699 -8 13 -14 25c22 9.33301 40.667 13 56 11zM2539 548.993c0 28 -9 51.333 -27 70c0 -20.667 -4.33301 -52.667 -13 -96l-31 -162l22 -76l45 236c2.66699 14.667 4 24 4 28zM2429 539.993c-1.33301 17.333 -3.00391 30.335 -5.00391 39.002
c-3.33301 16 -8.66602 28.333 -15.999 37c-11.333 12 -28.666 18.667 -51.999 20c-0.666992 9.33301 -4.66699 23.333 -12 42c-8.66699 24 -19 42 -31 54c-17.333 18 -36.333 30 -57 36c-11.333 3.33301 -25 4.33301 -41 3c-34 -2 -60.667 -13.667 -80 -35
c-4.66699 -4.66699 -10.667 -12.667 -18 -24c-3.33301 -8.66699 -5 -21 -5 -37c7.33301 14 12 22.333 14 25c7.33301 11.333 15.333 19.666 24 24.999c15.333 9.33301 29.666 13.666 42.999 12.999c24 -1.33301 45.667 -7 65 -17c28.667 -14 51.667 -41.667 69 -83
c-14.667 -8.66699 -22 -21 -22 -37l1 -7c2.66699 -18.667 6.66699 -28 12 -28c0.666992 0.666992 1.33398 1.66699 2.00098 3c4 12.667 15 19 33 19c20.667 0 35.334 -4.66699 44.001 -14c3.33301 -3.33301 3.33301 -13.333 0 -30l-42 -210
c-8 -2.66699 -11.667 -14.334 -11 -35.001c2 -28.667 12.333 -44 31 -46c-0.666992 8.66699 2 22.334 8 41.001c2.66699 5.33301 8 10 16 14l16 10c0 0.666992 -3.66699 11.667 -11 33l-10 2c0.666992 2 6.33398 30.333 17.001 85l15 82zM3022 548.995
c0 28 -9 51.333 -27 70c0 -20.667 -4 -52.667 -12 -96l-32 -162l22 -76l45 236c2.66699 14.667 4 24 4 28zM1551 590.995c-1.33301 6.66699 -7.33301 16.334 -18 29.001c-57.333 38 -106.666 60 -147.999 66l27 -33c21.333 -6.66699 67.666 -27.334 138.999 -62.001z
M2023 734.995c-1.33301 7.33301 -7.66699 17.001 -19 29.001c-57.333 38 -106.333 60 -147 66l27 -33c20.667 -6.66699 67 -27.334 139 -62.001zM2322 152.996c-0.666992 7.33301 -6.66699 17.333 -18 30c-56.667 38 -105.667 59.667 -147 65l27 -32
c20.667 -7.33301 66.667 -28.333 138 -63zM2037 216.996c-0.666992 7.33301 -6.66699 17.333 -18 30c-36.667 24.667 -78.667 43.667 -126 57l27 -33c12 -4 51 -22 117 -54zM2838 209.996c-0.666992 6.66699 -6.66699 16.334 -18 29.001c-56.667 38 -105.667 60 -147 66
l27 -33c21.333 -6.66699 67.333 -27.334 138 -62.001zM2689 688.996c-1.33301 7.33301 -7.66699 17.001 -19 29.001c-56.667 38.667 -105.667 60.667 -147 66l27 -33c20.667 -6.66699 67 -27.334 139 -62.001zM3227 736.997c-0.666992 7.33301 -6.66602 17.333 -17.999 30
c-30.667 19.333 -74.334 35.666 -131.001 48.999l28 -33c58 -19.333 98.333 -34.666 121 -45.999zM1822 213.997c9.33301 -13.333 17.333 -19.999 24 -19.999s10 2 10 6s-3.66699 7.33301 -11 10c-8 3.33301 -15.667 4.66602 -23 3.99902zM2565 210.998
c0.666992 1.33301 -4 5.33398 -14 12.001c-12 9.33301 -26.333 14 -43 14h-8c-7.33301 -0.666992 -13.666 -3 -18.999 -7s-8.33301 -6 -9 -6c-8 0 -16.333 3.33301 -25 10l-16 11c0.666992 -6.66699 4.66699 -15.334 12 -26.001c8 -12.667 17 -20 27 -22
c4 -0.666992 8.66699 0.333008 14 3c6 2.66699 11.333 3 16 1c15.333 -28.667 31.666 -43 48.999 -43c5.33301 0 10.333 1.66699 15 5c5.33301 4 8 9.66699 8 17c0 8 -2.33301 18.333 -7 31zM2516 205.999c9.33301 -13.333 17.333 -19.999 24 -19.999s10 2 10 6
s-3.66699 7.33301 -11 10c-7.33301 3.33301 -15 4.66602 -23 3.99902zM2299 306c0.666992 8 -1.66895 16.668 -7.00195 26.001c-6.66699 10 -14.667 15 -24 15s-16.333 -3 -21 -9l-8 14c-4 4.66699 -11 7.33398 -21 8.00098c-12 0.666992 -21.667 -6.66602 -29 -21.999
c-2 -4.66699 -2.33301 -12.667 -1 -24c2 -11.333 4.33301 -17 7 -17s4.33398 2.33301 5.00098 7l1 10c2.66699 9.33301 10 14 22 14c10 0 14.333 -9.66699 13 -29c-0.666992 -4.66699 0 -8 2 -10c2 -2.66699 3 -4.66699 3 -6c1.33301 0 3 3.66699 5 11
c2.66699 9.33301 5 15.666 7 18.999c2.66699 3.33301 6.66699 5.66602 12 6.99902c6 1.33301 10.333 0.333008 13 -3c2 -2 0 -10.667 -6 -26c0.666992 -0.666992 2.33398 -4.33398 5.00098 -11.001c3.33301 -7.33301 5.66602 -11 6.99902 -11
c2.66699 4.66699 7.33398 11 14.001 19c0.666992 1.33301 1 7.33301 1 18zM2834.99 344.001c0.666992 8.66699 -2.00195 17.335 -8.00195 26.002c-6 10.667 -13.667 16 -23 16s-16.333 -3 -21 -9l-8 14c-4.66699 4.66699 -11.667 7 -21 7
c-12 0.666992 -21.667 -6.33301 -29 -21c-2 -5.33301 -2.33301 -13.666 -1 -24.999s3.33301 -17 6 -17c3.33301 0 5.33301 2.66699 6 8l1 9c2.66699 9.33301 10 14 22 14c10 0 14 -9.66699 12 -29c-0.666992 -4 0 -7.33301 2 -10c2.66699 -2.66699 4 -4.66699 4 -6
c1.33301 0 3 4.33301 5 13s4 14.667 6 18c2.66699 3.33301 7 5.33301 13 6c6 1.33301 10 0.666016 12 -2.00098c2.66699 -2.66699 1 -11.667 -5 -27c0.666992 -0.666992 2.33398 -4.33398 5.00098 -11.001c2.66699 -7.33301 5 -11 7 -11
c2.66699 5.33301 7.33398 11.666 14.001 18.999c0.666992 1.33301 1 7.33301 1 18zM3199.99 669.002c-2.66699 6 -10.001 15.335 -22.001 28.002h-8c-14.667 0 -36.667 -5 -66 -15c-5.33301 10 -15.333 24.333 -30 43c-16 14 -35 23 -57 27
c-18 3.33301 -45.667 3.33301 -83 0c15.333 -5.33301 39.666 -16.333 72.999 -33c40.667 -20.667 62.667 -35.334 66 -44.001c-4.66699 -6.66699 -7.33398 -15.667 -8.00098 -27c0 -14 5 -32 15 -54c9.33301 -19.333 24 -31.333 44 -36c14 16.667 33.333 31.667 58 45
c18.667 10.667 49 22 91 34c12.667 4 50 11.333 112 22c80 13.333 160 22.666 240 27.999l243 10c102 4.66699 193 7 273 7c197.333 0 430.666 -16 699.999 -48c234.667 -27.333 419.667 -62.333 555 -105c50 -15.333 86.333 -34 109 -56c2.66699 2.66699 4 5.66699 4 9
c0.666992 4 -0.666016 12 -3.99902 24c2 3.33301 5 7.33301 9 12c10 6 21 9 33 9c39.333 0 66.333 -18 81 -54c4.66699 0.666992 7.33398 7.33398 8.00098 20.001v13c-0.666992 4.66699 1.33301 7.66699 6 9c20 1.33301 33.667 -7.33398 41 -26.001
c7.33301 -19.333 12.666 -28.666 15.999 -27.999c4 0.666992 5.66699 4.66699 5 12c-1.33301 9.33301 -1 15 1 17c5.33301 5.33301 18 9.33301 38 12c20 3.33301 30.667 -3.33398 32 -20.001c0.666992 -10 -3.66602 -22.667 -12.999 -38
c-5.33301 -9.33301 -13.666 -23.333 -24.999 -42c-6 -0.666992 -13.333 -2 -22 -4c-5.33301 -1.33301 -10 -4.66602 -14 -9.99902c-10.667 -14.667 -16.334 -31 -17.001 -49c0 -21.333 5.66699 -38 17 -50c28.667 17.333 53.334 44.333 74.001 81c17.333 34 26 65.667 26 95
c0 58.667 -19.667 88 -59 88c-16.667 0 -36 -6 -58 -18c-7.33301 20 -22.666 31 -45.999 33c-16 1.33301 -28.333 -4 -37 -16c-12.667 18.667 -34 28 -64 28c-24.667 0 -45 -9 -61 -27c-30.667 12 -62 22.667 -94 32c-128 38 -304 70.667 -528 98
c-272 33.333 -507 50.666 -705 51.999c-76 0.666992 -168.667 -1.33301 -278 -6l-204 -7c-68 -3.33301 -135.333 -10 -202 -20c-90 -13.333 -142.333 -21.333 -157 -24c-54.667 -10 -90.667 -20.333 -108 -31zM3153.99 637.004c-12 -5.33301 -26 -17.333 -42 -36
c-4 4.66699 -9 13 -15 25c22.667 9.33301 41.667 13 57 11zM3040.99 215.004c0.666992 0.666992 -3.66699 4.66895 -13 12.002c-12 9.33301 -26.333 14 -43 14l-8 -1c-7.33301 -0.666992 -13.666 -2.66699 -18.999 -6c-5.33301 -4 -8.33301 -6 -9 -6c-8 0 -16.667 3 -26 9
l-15 11c0.666992 -6.66699 4.66699 -15.334 12 -26.001c8 -12 17 -19 27 -21c3.33301 -0.666992 7.66602 0 12.999 2c6 2.66699 11.667 3 17 1c14.667 -28 31 -42 49 -42c5.33301 0 10.333 1.66699 15 5c5.33301 3.33301 8 8.66602 8 15.999c0 8 -2.66699 18.667 -8 32z
M2992.99 209.006c9.33301 -13.333 17.333 -19.999 24 -19.999s10 2 10 6s-3.66699 7.33301 -11 10c-7.33301 3.33301 -15 4.66602 -23 3.99902zM5624.99 245.007c-12 24.667 -30.3311 40.665 -54.998 47.998c-8.66699 2.66699 -21 3.66699 -37 3c0 -2 7.33301 -7 22 -15
c14.667 -8.66699 22 -14.667 22 -18c-0.666992 -1.33301 -6.66699 -2.66602 -18 -3.99902c-11.333 -2 -21.333 -2.33301 -30 -1c-2 0.666992 -5 2 -9 4c-4.66699 2 -9 3 -13 3c3.33301 -11.333 7.66602 -19.666 12.999 -24.999c9.33301 -10.667 23 -16 41 -16
c29.333 -0.666992 50.666 6.33301 63.999 21zM5832.99 698.005c-0.666992 7.33301 -6.66699 17.332 -18 29.999c-30.667 18.667 -74.334 35 -131.001 49l27 -33c58.667 -19.333 99.334 -34.666 122.001 -45.999zM5778.99 655.004l-25 37l-39 -27l24 -38z" />
</svg>
